<svg width="158" height="38" viewBox="0 0 158 38" fill="none" xmlns="http://www.w3.org/2000/svg">
<path d="M48.7984 7.22432C47.8816 7.8953 45.9978 8.79481 43.1477 9.91961C39.064 12.4548 36.1638 16.3682 34.4465 21.6578C32.6629 26.9642 30.9962 30.5504 29.4459 32.414C27.3456 35.0159 24.0451 36.67 19.5445 37.3762C18.6277 37.5266 16.6938 37.6444 13.744 37.7291H8.71817C8.23498 37.7112 7.81804 37.5266 7.4679 37.1748C7.13446 36.8388 6.96801 36.4273 6.96801 35.9409C6.98471 35.4534 7.15978 35.043 7.49322 34.707C7.82666 34.371 8.23498 34.2022 8.71817 34.2022H13.6939C16.3943 34.1354 18.1612 34.0344 18.9945 33.8998C22.6284 33.3124 25.2119 32.0698 26.7455 30.172C28.0292 28.6102 29.4874 25.403 31.1212 20.5488C33.138 14.3694 36.5802 9.80181 41.4471 6.84704L41.7218 6.69558C43.5722 5.97358 44.9555 5.37752 45.8729 4.90687C44.4061 4.13384 41.5969 3.7647 37.4469 3.7989C32.9462 3.83201 28.2204 4.24295 23.27 5.03281C14.8354 6.37638 9.35973 9.55807 6.8425 14.5795C5.29326 17.6863 4.73465 21.9857 5.16775 27.4767C9.1685 17.8209 15.4522 11.4559 24.0198 8.38332C24.4696 8.21558 24.9119 8.23187 25.345 8.43327C25.7786 8.63467 26.0787 8.9707 26.2451 9.44027C26.4121 9.8941 26.3949 10.3392 26.195 10.7762C25.9952 11.2122 25.6617 11.514 25.1947 11.6828C20.4942 13.3792 16.5769 16.1739 13.4434 20.0705C10.3261 23.9498 7.92578 29.0043 6.24241 35.2347C6.14222 35.6217 5.94237 35.9322 5.64232 36.1668C5.32558 36.4024 4.96736 36.5283 4.56712 36.5451C4.18412 36.5451 3.83398 36.4273 3.51724 36.1923C3.2005 35.9578 2.98395 35.6462 2.86706 35.2602C2.55032 34.2022 2.34185 33.2869 2.24166 32.5139C0.942367 24.1175 1.43418 17.6108 3.71763 12.9922C6.75146 6.89644 13.0938 3.07527 22.7453 1.53084C27.9457 0.725239 32.838 0.305067 37.4221 0.27141C40.9391 0.255667 43.6476 0.498324 45.5481 1.00318C48.2312 1.72518 49.7153 3.02641 49.9986 4.90687C50.1317 5.78032 49.7314 6.55227 48.7984 7.22432Z" fill="url(#paint0_linear)"/>
<path fill-rule="evenodd" clip-rule="evenodd" d="M71.793 12.774C71.0501 11.226 69.7331 10.149 67.7407 10.149C65.6133 10.149 64.2288 11.4279 64.2288 13.1106C64.2288 14.5913 64.9717 15.7019 67.2342 16.5096L68.7538 17.0481C71.8943 18.125 73.8529 19.3029 73.8529 22.1635C73.8529 25.3606 70.7462 26.9423 68.0447 26.9423C65.1067 26.9423 62.6078 25.2933 62 22.399L63.317 22.0625C63.9248 24.3846 65.8834 25.5962 68.0447 25.5962C70.1046 25.5962 72.3333 24.4856 72.3333 22.2308C72.3333 20.1443 70.915 19.2019 68.6525 18.4279L66.7276 17.7548C63.8573 16.7452 62.7091 15.0625 62.7091 13.1442C62.7091 10.6539 64.8366 8.80286 67.7407 8.80286C70.3072 8.80286 72.1982 10.2164 73.0762 12.3029L71.793 12.774ZM85.6383 8.80286C89.5893 8.80286 94.5196 11.8654 94.5196 17.8894C94.5196 23.8798 89.5893 26.9423 85.6383 26.9423C82.5654 26.9423 79.8301 25.4279 78.4793 22.601V26.6058H78.4455V33H76.8921V21.6587H76.9259V9.10575H78.4793V13.1442C79.8301 10.2836 82.5654 8.80286 85.6383 8.80286ZM85.537 25.5288C88.8126 25.5288 92.9662 23.0385 92.9662 17.8894C92.9662 12.7067 88.8126 10.2164 85.537 10.2164C82.1263 10.2164 78.4118 12.6394 78.4118 17.8894C78.4118 23.1058 82.1263 25.5288 85.537 25.5288ZM106.069 8.83653C106.305 8.83653 106.508 8.83653 106.676 8.87019V10.3173C106.474 10.2836 106.271 10.2836 106.069 10.2836C102.692 10.2836 99.8889 12.7067 99.281 16.9808V26.6058L97.7277 26.6058V9.10575H99.281V14.0865C99.6863 11.4615 102.32 8.83653 106.069 8.83653ZM117.753 8.80286C121.737 8.80286 126.6 11.8654 126.6 17.8558C126.6 23.8798 121.737 26.9423 117.753 26.9423C113.768 26.9423 108.871 23.8798 108.871 17.8558C108.871 11.8654 113.768 8.80286 117.753 8.80286ZM117.753 10.2164C114.511 10.2164 110.425 12.7067 110.425 17.8558C110.425 23.0385 114.511 25.5288 117.753 25.5288C120.995 25.5288 125.047 23.0385 125.047 17.8558C125.047 12.7067 120.995 10.2164 117.753 10.2164ZM136.056 26.875C132.577 26.875 129.302 24.6875 129.302 19.3365V9.10575H130.855V19.4039C130.855 23.5433 133.253 25.4616 136.258 25.4616C139.77 25.4616 142.303 22.2981 142.776 19.7067V9.10575L144.329 9.10575V26.6058H142.776V22.0625C142.438 23.4423 140.108 26.875 136.056 26.875ZM155 10.4856L151.319 10.4856V23.7788C151.319 24.9231 151.826 25.4279 152.704 25.4279C153.582 25.4279 154.19 25.1587 154.932 24.7548V26.1683C154.19 26.5721 153.48 26.8077 152.298 26.8077C151.015 26.8077 149.766 26.0673 149.766 24.0817V10.4856H147.368V9.10575H149.766V5L151.319 5V9.10575L155 9.10575V10.4856Z" fill="#656565"/>
<defs>
<linearGradient id="paint0_linear" x1="1.53479" y1="18.9999" x2="50.0235" y2="18.9999" gradientUnits="userSpaceOnUse">
<stop stop-color="#E93E3A"/>
<stop offset="0.1" stop-color="#ED683C"/>
<stop offset="0.3" stop-color="#F3903F"/>
<stop offset="0.7" stop-color="#FDC70C"/>
<stop offset="1" stop-color="#FFF33B"/>
</linearGradient>
</defs>
</svg>
