<svg width="10" height="12" viewBox="0 0 10 12" fill="none" xmlns="http://www.w3.org/2000/svg">
<path fill-rule="evenodd" clip-rule="evenodd" d="M7.00042 2.4C7.22113 2.39976 7.39998 2.22076 7.39998 2V1.6H8.33331C8.92241 1.6 9.39998 2.07756 9.39998 2.66666V3.33333C9.39998 3.55424 9.22089 3.73333 8.99998 3.73333H8.38366L8.39963 3.34998C8.40911 3.12247 8.22703 2.93296 7.99932 2.93333L1.99932 2.94315C1.77212 2.94352 1.59085 3.13282 1.60032 3.35982L1.61591 3.73333H0.999976C0.779062 3.73333 0.599976 3.55424 0.599976 3.33333V2.66666C0.599976 2.07756 1.07754 1.6 1.66664 1.6H2.59998V2C2.59998 2.22076 2.77882 2.39976 2.99953 2.4H1.66664C1.51937 2.4 1.39998 2.51939 1.39998 2.66666V2.93333H8.59998V2.66666C8.59998 2.51939 8.48059 2.4 8.33331 2.4H7.00042ZM6.99953 2.4C6.77882 2.39976 6.59998 2.22076 6.59998 2V1.6H7.39998V1.33333C7.39998 0.744226 6.92241 0.266663 6.33331 0.266663H3.66664C3.07754 0.266663 2.59998 0.744226 2.59998 1.33333V1.6H3.39998V2C3.39998 2.22076 3.22113 2.39976 3.00042 2.4H6.99953ZM3.39998 1.6H6.59998V1.33333C6.59998 1.18605 6.48059 1.06666 6.33331 1.06666H3.66664C3.51937 1.06666 3.39998 1.18605 3.39998 1.33333V1.6ZM1.61591 3.73333L1.907 10.7111C1.93084 11.2824 2.40093 11.7333 2.97274 11.7333H7.02717C7.59901 11.7333 8.06911 11.2824 8.09292 10.7111L8.38366 3.73333H1.61591ZM7.58293 3.73401L2.41698 3.74247L2.70631 10.6778C2.71227 10.8206 2.82979 10.9333 2.97274 10.9333H7.02717C7.17013 10.9333 7.28766 10.8206 7.29361 10.6778L7.58293 3.73401Z" fill="#D0021B"/>
</svg>
